<svg width="150" height="150" viewBox="0 0 150 150" fill="none" xmlns="http://www.w3.org/2000/svg">
<rect width="150" height="150" rx="75" fill="#3864FF"/>
<path fill-rule="evenodd" clip-rule="evenodd" d="M75 114.452C95.9868 114.452 113 107.194 113 83.7247C113 60.2556 95.9868 36 75 36C54.0132 36 37 60.2556 37 83.7247C37 107.194 54.0132 114.452 75 114.452ZM63.3548 87.4839C67.7553 87.4839 71.3226 83.9166 71.3226 79.5161C71.3226 75.1157 67.7553 71.5484 63.3548 71.5484C58.9544 71.5484 55.3871 75.1157 55.3871 79.5161C55.3871 83.9166 58.9544 87.4839 63.3548 87.4839ZM94.6129 79.5161C94.6129 83.9166 91.0456 87.4839 86.6452 87.4839C82.2447 87.4839 78.6774 83.9166 78.6774 79.5161C78.6774 75.1157 82.2447 71.5484 86.6452 71.5484C91.0456 71.5484 94.6129 75.1157 94.6129 79.5161ZM75 103.419C84.8065 103.419 87.2581 94.8387 87.2581 94.8387H62.7419C62.7419 94.8387 65.1936 103.419 75 103.419Z" fill="white"/>
</svg>
